<mxfile host="app.diagrams.net" modified="2024-05-27T11:38:18.500Z" agent="Mozilla/5.0 (Macintosh; Intel Mac OS X 10_15_7) AppleWebKit/537.36 (KHTML, like Gecko) Chrome/125.0.0.0 Safari/537.36" etag="dB3eniQm_gycZbl8PWNB" version="24.4.4" type="github">
  <diagram name="Page-1" id="fb29s9fyvKI-ZB8pdXx2">
    <mxGraphModel dx="1747" dy="658" grid="1" gridSize="10" guides="1" tooltips="1" connect="1" arrows="1" fold="1" page="1" pageScale="1" pageWidth="827" pageHeight="1169" math="0" shadow="0">
      <root>
        <mxCell id="0" />
        <mxCell id="1" parent="0" />
        <mxCell id="3uLHTFu8JJJtG5VjvnFN-1" value="Topologic&amp;nbsp;" style="rounded=0;whiteSpace=wrap;html=1;" vertex="1" parent="1">
          <mxGeometry x="-44.5" y="120" width="120" height="60" as="geometry" />
        </mxCell>
        <mxCell id="3uLHTFu8JJJtG5VjvnFN-2" value="TimeStamp&lt;div&gt;+&lt;/div&gt;&lt;div&gt;Token&lt;/div&gt;" style="rounded=1;whiteSpace=wrap;html=1;" vertex="1" parent="1">
          <mxGeometry x="550" y="230" width="120" height="60" as="geometry" />
        </mxCell>
        <mxCell id="3uLHTFu8JJJtG5VjvnFN-3" value="Interplanetary filesystem" style="ellipse;shape=cloud;whiteSpace=wrap;html=1;" vertex="1" parent="1">
          <mxGeometry x="40" y="370" width="420" height="170" as="geometry" />
        </mxCell>
        <mxCell id="3uLHTFu8JJJtG5VjvnFN-4" value="" style="image;sketch=0;aspect=fixed;html=1;points=[];align=center;fontSize=12;image=img/lib/mscae/Resource_Graph_Explorer.svg;" vertex="1" parent="1">
          <mxGeometry x="75.5" y="230" width="49" height="50" as="geometry" />
        </mxCell>
        <mxCell id="3uLHTFu8JJJtG5VjvnFN-5" value="" style="endArrow=none;html=1;rounded=0;entryX=0;entryY=0.5;entryDx=0;entryDy=0;" edge="1" parent="1" target="3uLHTFu8JJJtG5VjvnFN-11">
          <mxGeometry width="50" height="50" relative="1" as="geometry">
            <mxPoint x="270" y="140" as="sourcePoint" />
            <mxPoint x="320" y="90" as="targetPoint" />
          </mxGeometry>
        </mxCell>
        <mxCell id="3uLHTFu8JJJtG5VjvnFN-7" value="" style="endArrow=none;html=1;rounded=0;exitX=0.5;exitY=0;exitDx=0;exitDy=0;" edge="1" parent="1" source="3uLHTFu8JJJtG5VjvnFN-17">
          <mxGeometry width="50" height="50" relative="1" as="geometry">
            <mxPoint x="230" y="240" as="sourcePoint" />
            <mxPoint x="270" y="140" as="targetPoint" />
          </mxGeometry>
        </mxCell>
        <mxCell id="3uLHTFu8JJJtG5VjvnFN-10" value="" style="endArrow=none;html=1;rounded=0;entryX=0.5;entryY=0;entryDx=0;entryDy=0;" edge="1" parent="1" target="3uLHTFu8JJJtG5VjvnFN-14">
          <mxGeometry width="50" height="50" relative="1" as="geometry">
            <mxPoint x="270" y="140" as="sourcePoint" />
            <mxPoint x="312" y="200" as="targetPoint" />
          </mxGeometry>
        </mxCell>
        <mxCell id="3uLHTFu8JJJtG5VjvnFN-11" value="" style="whiteSpace=wrap;html=1;aspect=fixed;" vertex="1" parent="1">
          <mxGeometry x="330" y="20" width="80" height="80" as="geometry" />
        </mxCell>
        <mxCell id="3uLHTFu8JJJtG5VjvnFN-12" value="" style="whiteSpace=wrap;html=1;aspect=fixed;" vertex="1" parent="1">
          <mxGeometry x="190" y="10" width="80" height="80" as="geometry" />
        </mxCell>
        <mxCell id="3uLHTFu8JJJtG5VjvnFN-13" value="" style="endArrow=none;html=1;rounded=0;entryX=0.425;entryY=1.013;entryDx=0;entryDy=0;entryPerimeter=0;" edge="1" parent="1" target="3uLHTFu8JJJtG5VjvnFN-12">
          <mxGeometry width="50" height="50" relative="1" as="geometry">
            <mxPoint x="270" y="140" as="sourcePoint" />
            <mxPoint x="440" y="240" as="targetPoint" />
          </mxGeometry>
        </mxCell>
        <mxCell id="3uLHTFu8JJJtG5VjvnFN-14" value="" style="whiteSpace=wrap;html=1;aspect=fixed;" vertex="1" parent="1">
          <mxGeometry x="330" y="220" width="80" height="80" as="geometry" />
        </mxCell>
        <mxCell id="3uLHTFu8JJJtG5VjvnFN-15" value="" style="endArrow=none;html=1;rounded=0;exitX=1;exitY=0.5;exitDx=0;exitDy=0;" edge="1" parent="1" source="3uLHTFu8JJJtG5VjvnFN-12" target="3uLHTFu8JJJtG5VjvnFN-11">
          <mxGeometry width="50" height="50" relative="1" as="geometry">
            <mxPoint x="390" y="290" as="sourcePoint" />
            <mxPoint x="440" y="240" as="targetPoint" />
          </mxGeometry>
        </mxCell>
        <mxCell id="3uLHTFu8JJJtG5VjvnFN-16" value="" style="endArrow=none;html=1;rounded=0;entryX=0.5;entryY=1;entryDx=0;entryDy=0;" edge="1" parent="1" source="3uLHTFu8JJJtG5VjvnFN-14" target="3uLHTFu8JJJtG5VjvnFN-11">
          <mxGeometry width="50" height="50" relative="1" as="geometry">
            <mxPoint x="390" y="290" as="sourcePoint" />
            <mxPoint x="440" y="240" as="targetPoint" />
          </mxGeometry>
        </mxCell>
        <mxCell id="3uLHTFu8JJJtG5VjvnFN-17" value="" style="whiteSpace=wrap;html=1;aspect=fixed;" vertex="1" parent="1">
          <mxGeometry x="180" y="210" width="80" height="80" as="geometry" />
        </mxCell>
        <mxCell id="3uLHTFu8JJJtG5VjvnFN-18" value="" style="endArrow=none;html=1;rounded=0;entryX=0.25;entryY=1;entryDx=0;entryDy=0;exitX=0.25;exitY=0;exitDx=0;exitDy=0;" edge="1" parent="1" source="3uLHTFu8JJJtG5VjvnFN-17" target="3uLHTFu8JJJtG5VjvnFN-12">
          <mxGeometry width="50" height="50" relative="1" as="geometry">
            <mxPoint x="390" y="290" as="sourcePoint" />
            <mxPoint x="440" y="240" as="targetPoint" />
          </mxGeometry>
        </mxCell>
        <mxCell id="3uLHTFu8JJJtG5VjvnFN-19" value="" style="endArrow=none;html=1;rounded=0;exitX=1;exitY=0.5;exitDx=0;exitDy=0;entryX=0;entryY=0.5;entryDx=0;entryDy=0;" edge="1" parent="1" source="3uLHTFu8JJJtG5VjvnFN-17" target="3uLHTFu8JJJtG5VjvnFN-14">
          <mxGeometry width="50" height="50" relative="1" as="geometry">
            <mxPoint x="390" y="290" as="sourcePoint" />
            <mxPoint x="440" y="240" as="targetPoint" />
          </mxGeometry>
        </mxCell>
        <mxCell id="3uLHTFu8JJJtG5VjvnFN-20" value="" style="endArrow=classic;html=1;rounded=0;exitX=1;exitY=0.5;exitDx=0;exitDy=0;" edge="1" parent="1" source="3uLHTFu8JJJtG5VjvnFN-1">
          <mxGeometry width="50" height="50" relative="1" as="geometry">
            <mxPoint x="390" y="290" as="sourcePoint" />
            <mxPoint x="160" y="150" as="targetPoint" />
          </mxGeometry>
        </mxCell>
      </root>
    </mxGraphModel>
  </diagram>
</mxfile>
